<svg width="180" height="180" viewBox="0 0 180 180" fill="none" xmlns="http://www.w3.org/2000/svg">
  <defs>
    <linearGradient id="grad" x1="0%" y1="0%" x2="100%" y2="100%">
      <stop offset="0%" stop-color="#2563eb"/>
      <stop offset="100%" stop-color="#9333ea"/>
    </linearGradient>
  </defs>
  <rect width="180" height="180" rx="40" fill="url(#grad)"/>
  <path d="M90 34c-22 0-39 17-39 39 0 8 2 15 6 21-.5 2-.5 5-.5 7 0 15 10 27 22 31 2 1 3 1 6 1 2 1 4 1 6 1s4 0 6-1c2 0 4 0 6-1 12-4 22-16 22-31 0-2 0-5-.5-7 4-6 6-13 6-21 0-22-17-39-39-39zm0 11c16 0 28 12 28 28 0 6-2 11-5 15-1 0-3-1-4-1-1-6-6-10-11-11v-10c0-3-2-6-6-6s-6 3-6 6v10c-5 1-10 5-11 11-1 0-3 0-4 1-3-4-5-9-5-15 0-16 12-28 28-28zm-14 50c1 2 2 4 5 5v7c-6-2-10-7-11-12h6zm22 5v-5c3-1 4-3 5-5h6c-1 5-5 10-11 12v-2zm-8-5c-3 0-6-2-6-6v-6h11v6c0 4-2 6-5 6z" fill="white"/>
</svg>
