<svg width="32" height="32" viewBox="0 0 32 32" fill="none" xmlns="http://www.w3.org/2000/svg">
  <defs>
    <linearGradient id="grad" x1="0%" y1="0%" x2="100%" y2="100%">
      <stop offset="0%" stop-color="#2563eb"/>
      <stop offset="100%" stop-color="#9333ea"/>
    </linearGradient>
  </defs>
  <rect width="32" height="32" rx="7" fill="url(#grad)"/>
  <path d="M16 6c-3.9 0-7 3.1-7 7 0 1.4.4 2.7 1.1 3.8-.1.4-.1.8-.1 1.2 0 2.6 1.7 4.8 4 5.6.3.1.6.1 1 .2.3 0 .7.1 1 .1s.7 0 1-.1c.4 0 .7-.1 1-.2 2.3-.8 4-3 4-5.6 0-.4 0-.8-.1-1.2.7-1.1 1.1-2.4 1.1-3.8 0-3.9-3.1-7-7-7zm0 2c2.8 0 5 2.2 5 5 0 1-.3 1.9-.8 2.7-.2 0-.5-.1-.7-.1-.1-1-1-1.8-2-1.9V12c0-.6-.4-1-1-1s-1 .4-1 1v1.7c-1 .1-1.9.9-2 1.9-.2 0-.5 0-.7.1-.5-.8-.8-1.7-.8-2.7 0-2.8 2.2-5 5-5zm-2.5 9c.1.4.4.8.9.9v1.2c-1-.4-1.7-1.2-1.9-2.1h1zm4 .9v-.9c.4-.1.8-.5.9-.9h1c-.2.9-.9 1.7-1.9 2.1v-.3zm-1.5-.9c-.6 0-1-.4-1-1v-1h2v1c0 .6-.4 1-1 1z" fill="white"/>
</svg>
