<svg width="512" height="512" viewBox="0 0 512 512" fill="none" xmlns="http://www.w3.org/2000/svg">
  <defs>
    <linearGradient id="gradient" x1="0%" y1="0%" x2="100%" y2="100%">
      <stop offset="0%" style="stop-color:#2563eb"/>
      <stop offset="100%" style="stop-color:#9333ea"/>
    </linearGradient>
  </defs>
  <rect width="512" height="512" rx="96" fill="url(#gradient)"/>
  <path d="M256 96C193.3 96 144 145.3 144 208c0 24 8 46.4 20.8 65.6-3.2 9.6-4.8 19.2-4.8 30.4 0 44.8 32 81.6 73.6 92.8 1.6 0 4.8 1.6 6.4 1.6 6.4 1.6 11.2 1.6 16 1.6s9.6 0 16-1.6c1.6 0 4.8 0 6.4-1.6 41.6-11.2 73.6-48 73.6-92.8 0-11.2-1.6-20.8-4.8-30.4 12.8-19.2 20.8-41.6 20.8-65.6 0-62.7-49.3-112-112-112zm0 32c44.2 0 80 35.8 80 80 0 17.6-6.4 33.6-16 46.4-4.8-1.6-9.6-3.2-14.4-3.2-1.6-17.6-16-32-33.6-33.6V192c0-9.6-6.4-16-16-16s-16 6.4-16 16v25.6c-17.6 1.6-32 16-33.6 33.6-4.8 0-9.6 1.6-14.4 3.2-9.6-12.8-16-28.8-16-46.4 0-44.2 35.8-80 80-80zm-48 155.2c1.6 8 8 14.4 16 16v20.8c-17.6-6.4-30.4-20.8-33.6-38.4 6.4 1.6 11.2 1.6 17.6 1.6zm80 16v-16c8-1.6 14.4-8 16-16 6.4 0 12.8 0 17.6-1.6-3.2 17.6-16 32-33.6 38.4v-4.8zm-32-16c-9.6 0-16-6.4-16-16v-16h32v16c0 9.6-6.4 16-16 16z" fill="white"/>
</svg>
